<svg width="166" height="56" viewBox="0 0 166 56" fill="none" xmlns="http://www.w3.org/2000/svg">
<path d="M32.1991 0.743896H46.9703V35.5997C46.9703 39.7442 45.9785 43.3307 43.9949 46.3593C42.0289 49.3703 39.2836 51.6993 35.7591 53.3464C32.2346 54.9759 28.1432 55.7906 23.4852 55.7906C18.7917 55.7906 14.6827 54.9759 11.1581 53.3464C7.63357 51.6993 4.88832 49.3703 2.92236 46.3593C0.974121 43.3307 0 39.7442 0 35.5997V0.743896H14.7712V34.3245C14.7712 36.0071 15.1432 37.5125 15.887 38.8409C16.6309 40.1515 17.6582 41.1788 18.9688 41.9227C20.2971 42.6665 21.8026 43.0385 23.4852 43.0385C25.1855 43.0385 26.6909 42.6665 28.0016 41.9227C29.3122 41.1788 30.3394 40.1515 31.0833 38.8409C31.8272 37.5125 32.1991 36.0071 32.1991 34.3245V0.743896Z" fill="#130E2A"/>
<path d="M72.0181 0.743896C72.379 0.743896 72.7119 0.938393 72.8892 1.2528L81.4241 16.3921C81.4888 16.5068 81.6102 16.5778 81.7419 16.5778C81.8729 16.5778 81.9939 16.5075 82.0588 16.3937L90.6988 1.24839C90.8767 0.936458 91.2083 0.743896 91.5674 0.743896H105.695C106.472 0.743896 106.952 1.59036 106.554 2.25691L91.5117 27.4254C91.3197 27.7466 91.3232 28.1482 91.5206 28.466L107.147 53.6254C107.561 54.2915 107.082 55.153 106.297 55.153H91.779C91.4204 55.153 91.0892 54.961 90.9111 54.6497L82.0594 39.1847C81.9941 39.0707 81.8727 39.0003 81.7413 39.0003C81.6099 39.0003 81.4885 39.0707 81.4232 39.1847L72.5715 54.6497C72.3934 54.961 72.0622 55.153 71.7036 55.153H57.2795C56.4979 55.153 56.0184 54.2965 56.4271 53.6302L71.8617 28.4629C72.0557 28.1465 72.0586 27.7487 71.8691 27.4295L56.9214 2.25443C56.5256 1.58784 57.006 0.743896 57.7812 0.743896H72.0181Z" fill="url(#paint0_linear)"/>
<path d="M165.415 27.9484C165.415 34.0057 164.237 39.1154 161.881 43.2775C159.526 47.422 156.346 50.5657 152.344 52.7088C148.341 54.8342 143.878 55.8968 138.954 55.8968C133.995 55.8968 129.514 54.8253 125.511 52.6822C121.526 50.5215 118.356 47.3689 116 43.2244C113.662 39.0623 112.493 33.9703 112.493 27.9484C112.493 21.8912 113.662 16.7903 116 12.6459C118.356 8.48371 121.526 5.33995 125.511 3.2146C129.514 1.07153 133.995 0 138.954 0C143.878 0 148.341 1.07153 152.344 3.2146C156.346 5.33995 159.526 8.48371 161.881 12.6459C164.237 16.7903 165.415 21.8912 165.415 27.9484ZM150.218 27.9484C150.218 24.6895 149.784 21.9443 148.916 19.7127C148.066 17.4633 146.8 15.7631 145.117 14.6118C143.453 13.4429 141.398 12.8584 138.954 12.8584C136.51 12.8584 134.446 13.4429 132.764 14.6118C131.099 15.7631 129.833 17.4633 128.965 19.7127C128.115 21.9443 127.689 24.6895 127.689 27.9484C127.689 31.2073 128.115 33.9614 128.965 36.2107C129.833 38.4424 131.099 40.1426 132.764 41.3116C134.446 42.4628 136.51 43.0384 138.954 43.0384C141.398 43.0384 143.453 42.4628 145.117 41.3116C146.8 40.1426 148.066 38.4424 148.916 36.2107C149.784 33.9614 150.218 31.2073 150.218 27.9484Z" fill="#130E2A"/>
<defs>
<linearGradient id="paint0_linear" x1="55.4932" y1="0.743896" x2="109.871" y2="53.3165" gradientUnits="userSpaceOnUse">
<stop stop-color="#6044D0"/>
<stop offset="1" stop-color="#4D36A6"/>
</linearGradient>
</defs>
</svg>
