<svg width="110" height="40" viewBox="0 0 110 40" fill="none" xmlns="http://www.w3.org/2000/svg">
<path d="M21.3137 1.99237H31.0912V25.0646C31.0912 27.808 30.4347 30.182 29.1217 32.1868C27.8203 34.1798 26.0032 35.7215 23.6701 36.8118C21.3371 37.8903 18.629 38.4296 15.5456 38.4296C12.4388 38.4296 9.71894 37.8903 7.38593 36.8118C5.05291 35.7215 3.23574 34.1798 1.93441 32.1868C0.644803 30.182 0 27.808 0 25.0646V1.99237H9.77756V24.2205C9.77756 25.3343 10.0238 26.3308 10.5162 27.2101C11.0086 28.0776 11.6885 28.7576 12.5561 29.25C13.4354 29.7424 14.4319 29.9886 15.5456 29.9886C16.6711 29.9886 17.6676 29.7424 18.5352 29.25C19.4027 28.7576 20.0827 28.0776 20.5751 27.2101C21.0675 26.3308 21.3137 25.3343 21.3137 24.2205V1.99237Z" fill="white"/>
<path d="M46.9472 1.99237C47.6335 1.99237 48.2665 2.36217 48.6035 2.95996L53.8974 12.3505C53.9403 12.4264 54.0207 12.4734 54.1078 12.4734V12.4734C54.1946 12.4734 54.2746 12.4269 54.3176 12.3515L59.68 2.95156C60.0183 2.35849 60.6487 1.99237 61.3315 1.99237H67.7789C69.2553 1.99237 70.1684 3.60176 69.4109 4.86909L60.9622 19.0055C60.5972 19.6163 60.6037 20.3797 60.9791 20.9841L69.7483 35.1031C70.535 36.3697 69.6241 38.0076 68.1332 38.0076H61.4704C60.7885 38.0076 60.1589 37.6425 59.8202 37.0507L54.318 27.4377C54.2748 27.3622 54.1944 27.3156 54.1074 27.3156V27.3156C54.0204 27.3156 53.9401 27.3622 53.8969 27.4377L48.3946 37.0507C48.0559 37.6425 47.4263 38.0076 46.7445 38.0076H40.1293C38.6432 38.0076 37.7316 36.3791 38.5086 35.1123L47.1768 20.9781C47.5457 20.3765 47.5511 19.6201 47.1908 19.0134L38.7899 4.86438C38.0374 3.59698 38.9508 1.99237 40.4247 1.99237H46.9472Z" stroke="white" stroke-width="2"/>
<path d="M109.493 20C109.493 24.0095 108.714 27.3918 107.154 30.1469C105.595 32.8902 103.491 34.9712 100.841 36.3897C98.1917 37.7966 95.2373 38.5 91.9781 38.5C88.6955 38.5 85.7294 37.7907 83.0798 36.3721C80.442 34.9419 78.3434 32.855 76.7842 30.1117C75.2367 27.3566 74.4629 23.9861 74.4629 20C74.4629 15.9905 75.2367 12.6141 76.7842 9.87072C78.3434 7.11565 80.442 5.0347 83.0798 3.62785C85.7294 2.20928 88.6955 1.5 91.9781 1.5C95.2373 1.5 98.1917 2.20928 100.841 3.62785C103.491 5.0347 105.595 7.11565 107.154 9.87072C108.714 12.6141 109.493 15.9905 109.493 20ZM99.4344 20C99.4344 17.8428 99.1471 16.0257 98.5727 14.5485C98.0099 13.0596 97.1717 11.9341 96.0579 11.1721C94.9559 10.3983 93.596 10.0114 91.9781 10.0114C90.3602 10.0114 88.9944 10.3983 87.8807 11.1721C86.7786 11.9341 85.9404 13.0596 85.3659 14.5485C84.8032 16.0257 84.5218 17.8428 84.5218 20C84.5218 22.1572 84.8032 23.9802 85.3659 25.4691C85.9404 26.9463 86.7786 28.0718 87.8807 28.8455C88.9944 29.6076 90.3602 29.9886 91.9781 29.9886C93.596 29.9886 94.9559 29.6076 96.0579 28.8455C97.1717 28.0718 98.0099 26.9463 98.5727 25.4691C99.1471 23.9802 99.4344 22.1572 99.4344 20Z" fill="white"/>
</svg>
