<svg width="38" height="41" viewBox="0 0 38 41" fill="none" xmlns="http://www.w3.org/2000/svg">
<path d="M12.2986 0.583832C12.5564 0.583832 12.7942 0.722758 12.9208 0.947336L19.0172 11.7611C19.0634 11.8431 19.1502 11.8938 19.2442 11.8938V11.8938C19.3378 11.8938 19.4242 11.8436 19.4706 11.7623L25.642 0.944182C25.7691 0.721376 26.0059 0.583832 26.2624 0.583832H36.3539C36.9086 0.583832 37.2516 1.18845 36.967 1.66456L26.2227 19.6421C26.0855 19.8715 26.088 20.1583 26.229 20.3854L37.3907 38.3563C37.6862 38.8321 37.344 39.4475 36.7839 39.4475H26.4136C26.1574 39.4475 25.9209 39.3103 25.7936 39.088L19.471 28.0416C19.4244 27.9601 19.3377 27.9098 19.2438 27.9098V27.9098C19.1499 27.9098 19.0632 27.9601 19.0166 28.0416L12.6939 39.088C12.5667 39.3103 12.3302 39.4475 12.074 39.4475H1.77109C1.21278 39.4475 0.870307 38.8357 1.16219 38.3598L12.1869 20.3831C12.3255 20.1571 12.3276 19.873 12.1922 19.645L1.51528 1.66279C1.23257 1.18665 1.57572 0.583832 2.12946 0.583832H12.2986Z" fill="url(#paint0_linear)"/>
<defs>
<linearGradient id="paint0_linear" x1="0.495117" y1="0.583832" x2="39.3366" y2="38.1357" gradientUnits="userSpaceOnUse">
<stop stop-color="#6044D0"/>
<stop offset="1" stop-color="#4D36A6"/>
</linearGradient>
</defs>
</svg>
